<?xml version="1.0" encoding="UTF-8"?>
<svg width="512px" height="615px" viewBox="0 0 512 615" version="1.1" xmlns="http://www.w3.org/2000/svg" xmlns:xlink="http://www.w3.org/1999/xlink">
    <title>MI Banco BEC</title>
    <defs>
        <rect id="path-1" x="0" y="0" width="512" height="512" rx="163"></rect>
    </defs>
    <g id="MI-Banco-BEC" stroke="none" stroke-width="1" fill="none" fill-rule="evenodd">
        <mask id="mask-2" fill="white">
            <use xlink:href="#path-1"></use>
        </mask>
        <g id="Rectangle"></g>
        <g id="Group" mask="url(#mask-2)" fill-rule="nonzero">
            <g id="*/img/logo/app/mi-pago">
                <rect id="background" fill="#012B14" x="0" y="0" width="512" height="512"></rect>
                <path d="M258.800405,368.215621 L268.737243,388.250099 C269.193404,389.16988 270.075473,389.807296 271.095752,389.954448 L293.317569,393.167184 C294.497671,393.337983 295.478022,394.160391 295.84654,395.288714 C296.215058,396.417038 295.907852,397.655657 295.054054,398.483927 L278.985093,414.078331 C278.246169,414.794056 277.909673,415.82633 278.08575,416.837262 L281.880098,438.85456 C282.082176,440.024138 281.599222,441.206416 280.634344,441.90419 C279.669465,442.601963 278.390042,442.694184 277.334137,442.142071 L257.457869,431.745801 C256.545045,431.268978 255.454955,431.268978 254.542131,431.745801 L234.665863,442.142071 C233.609958,442.694184 232.330535,442.601963 231.365656,441.90419 C230.400778,441.206416 229.917824,440.024138 230.119902,438.85456 L233.916842,416.837262 C234.090875,415.825993 233.753593,414.79428 233.014907,414.078331 L216.945946,398.483927 C216.092148,397.655657 215.784942,396.417038 216.15346,395.288714 C216.521978,394.160391 217.502329,393.337983 218.682431,393.167184 L240.904248,389.954448 C241.924702,389.807723 242.80695,389.170177 243.262757,388.250099 L253.199595,368.215621 C253.732605,367.163608 254.815811,366.5 256,366.5 C257.184189,366.5 258.267395,367.163608 258.800405,368.215621 Z" id="isotipo-mi-banco" fill="#C4B264"></path>
                <path d="M329,223 L329,239.964667 C329,270.404126 324.392372,273.817622 263.839998,273.817622 L262.581808,273.817973 C262.490419,273.818031 262.402243,273.818094 262.317167,273.818165 L261.632105,273.818963 C261.4296,273.819283 261.251922,273.819653 261.095999,273.820068 L260.81225,273.820955 C259.230117,273.826765 260.645778,273.83865 259.298097,273.844123 L259.054422,273.844952 C259.009469,273.84508 258.96227,273.845203 258.912712,273.845321 L258.586134,273.84596 C258.526681,273.846054 258.464642,273.846143 258.399901,273.846226 L256.918303,273.846998 L256.918303,273.846998 C212.168951,273.846998 193.881969,276.711163 193.881969,312.5 L183,312.5 C183,250.134654 197.306201,244.086126 256.918303,243.683674 C260.369264,243.658383 261.202203,243.645155 261.937681,243.638251 L262.089286,243.636911 C262.241153,243.635658 262.396289,243.634658 262.577018,243.633861 L262.767104,243.63313 C262.800483,243.633018 262.834779,243.632912 262.870096,243.632811 L263.218305,243.632028 C263.260677,243.631954 263.304381,243.631885 263.349519,243.631819 L264.339238,243.631021 C264.405309,243.630995 264.473434,243.630972 264.543717,243.630951 L268.605802,243.630797 C302.174408,243.630797 322.368296,242.538008 322.368296,223 L329,223 Z M329,159 L329,175.962843 C329,206.4043 324.392372,209.818021 263.839998,209.818021 L260.254491,209.818866 C260.233914,209.818911 260.214843,209.818958 260.197166,209.819007 L260.022319,209.819947 C260.015735,209.820024 260.009976,209.820104 260.004928,209.820187 L259.982265,209.820727 C259.979607,209.820823 259.977432,209.820923 259.975628,209.821027 C259.967551,209.821811 259.966914,209.821934 259.966306,209.82206 C259.935542,209.826855 259.7532,209.834131 256.918303,209.847399 C211.132015,210.17937 193.881969,213.666535 193.881969,248.5 L183,248.5 C183,186.127622 195.30263,180.216773 256.918303,179.676219 C260.250266,179.647942 261.141646,179.634848 261.861146,179.629065 L262.013521,179.627934 L262.013521,179.627934 L262.165595,179.627011 C262.242383,179.626597 262.320919,179.626255 262.403993,179.625974 L262.870096,179.625037 C262.905413,179.625002 262.941751,179.624973 262.979213,179.624948 L263.96664,179.624991 C264.024906,179.625014 264.08502,179.625039 264.147085,179.625066 L266.372301,179.625966 C266.477857,179.625996 266.586294,179.626025 266.697716,179.626052 L268.605802,179.626276 L268.605802,179.626276 C302.174408,179.6204 322.368296,178.530478 322.368296,159 L329,159 Z M329,95 L329,111.962843 C329,142.4043 324.392372,145.820958 263.839998,145.820958 L262.071125,145.820985 C261.992135,145.82099 261.916131,145.820995 261.842998,145.821001 L260.197166,145.821945 C260.17949,145.821994 260.163207,145.822046 260.148203,145.8221 L260.022319,145.822885 C260.015735,145.822962 260.009976,145.823042 260.004928,145.823125 L259.975628,145.823965 C259.973823,145.824069 259.972389,145.824176 259.97121,145.824287 C259.948057,145.828784 259.955692,145.836121 256.918303,145.850336 C211.132015,146.182308 193.881969,149.669473 193.881969,184.5 L183,184.5 C183,122.13056 195.30263,116.219711 256.918303,115.679156 C260.72626,115.645372 261.346518,115.632886 262.165595,115.628847 L262.322329,115.628185 C262.349115,115.62809 262.376302,115.628003 262.403993,115.627923 L264.543717,115.627894 C264.614,115.627939 264.68644,115.627986 264.761142,115.628033 L266.697716,115.62894 C266.809137,115.628973 266.923544,115.629004 267.041038,115.629032 L268.605802,115.629214 L268.605802,115.629214 C302.174408,115.629214 322.368296,114.536353 322.368296,95 L329,95 Z" id="isotipo-edwards" fill="#C4B264"></path>
            </g>
        </g>
        <path d="M118.584,610.28 L118.512,573.92 L133.704,602.144 L138.744,602.144 L153.864,573.56 L153.792,610.28 L160.488,610.28 L160.488,559.52 L154.584,559.52 L136.296,594.656 L117.864,559.52 L111.888,559.52 L111.888,610.28 L118.584,610.28 Z M179.352,567.008 L179.352,559.448 L171,559.448 L171,567.008 L179.352,567.008 Z M178.776,610.28 L178.776,575.144 L171.504,575.144 L171.504,610.28 L178.776,610.28 Z M230.832,610.28 C236.208,610.28 240.396,609.068 243.396,606.644 C246.396,604.22 247.896,600.824 247.896,596.456 C247.896,593.288 247.092,590.648 245.484,588.536 C243.876,586.424 241.608,584.96 238.68,584.144 C241.224,583.184 243.204,581.72 244.62,579.752 C246.036,577.784 246.744,575.456 246.744,572.768 C246.744,568.592 245.268,565.34 242.316,563.012 C239.364,560.684 235.272,559.52 230.04,559.52 L230.04,559.52 L208.8,559.52 L208.8,610.28 L230.832,610.28 Z M228.888,581.48 L216.072,581.48 L216.072,565.496 L228.888,565.496 C232.488,565.496 235.164,566.144 236.916,567.44 C238.668,568.736 239.544,570.728 239.544,573.416 C239.544,578.792 235.992,581.48 228.888,581.48 L228.888,581.48 Z M230.04,604.304 L216.072,604.304 L216.072,587.456 L230.04,587.456 C233.688,587.456 236.388,588.164 238.14,589.58 C239.892,590.996 240.768,593.144 240.768,596.024 C240.768,598.856 239.904,600.944 238.176,602.288 C236.448,603.632 233.736,604.304 230.04,604.304 L230.04,604.304 Z M267.984,610.784 C270.384,610.784 272.484,610.244 274.284,609.164 C276.084,608.084 277.44,606.512 278.352,604.448 L278.352,604.448 L278.352,610.28 L285.336,610.28 L285.336,588.536 C285.336,583.736 284.196,580.16 281.916,577.808 C279.636,575.456 276.144,574.28 271.44,574.28 C268.992,574.28 266.436,574.676 263.772,575.468 C261.108,576.26 258.84,577.304 256.968,578.6 L256.968,578.6 L259.128,583.712 C263.112,581.264 267.096,580.04 271.08,580.04 C273.624,580.04 275.46,580.64 276.588,581.84 C277.716,583.04 278.28,584.984 278.28,587.672 L278.28,587.672 L278.28,589.76 L276.624,589.76 C271.296,589.76 267.108,590.072 264.06,590.696 C261.012,591.32 258.828,592.364 257.508,593.828 C256.188,595.292 255.528,597.296 255.528,599.84 C255.528,601.904 256.068,603.776 257.148,605.456 C258.228,607.136 259.728,608.444 261.648,609.38 C263.568,610.316 265.68,610.784 267.984,610.784 Z M269.28,605.384 C267.36,605.384 265.788,604.82 264.564,603.692 C263.34,602.564 262.728,601.16 262.728,599.48 C262.728,597.992 263.16,596.852 264.024,596.06 C264.888,595.268 266.328,594.704 268.344,594.368 C270.36,594.032 273.24,593.864 276.984,593.864 L276.984,593.864 L278.28,593.864 L278.28,595.736 C278.28,598.568 277.44,600.884 275.76,602.684 C274.08,604.484 271.92,605.384 269.28,605.384 Z M302.544,610.28 L302.544,590.264 C302.544,587.192 303.432,584.744 305.208,582.92 C306.984,581.096 309.336,580.184 312.264,580.184 C314.76,580.184 316.596,580.88 317.772,582.272 C318.948,583.664 319.536,585.848 319.536,588.824 L319.536,588.824 L319.536,610.28 L326.808,610.28 L326.808,588.464 C326.808,579.008 322.608,574.28 314.208,574.28 C311.616,574.28 309.288,574.832 307.224,575.936 C305.16,577.04 303.552,578.648 302.4,580.76 L302.4,580.76 L302.4,575.144 L295.272,575.144 L295.272,610.28 L302.544,610.28 Z M352.152,610.784 C354.648,610.784 357.048,610.388 359.352,609.596 C361.656,608.804 363.576,607.712 365.112,606.32 L365.112,606.32 L362.88,601.064 C359.712,603.656 356.424,604.952 353.016,604.952 C349.608,604.952 346.968,603.884 345.096,601.748 C343.224,599.612 342.288,596.576 342.288,592.64 C342.288,588.656 343.236,585.572 345.132,583.388 C347.028,581.204 349.656,580.112 353.016,580.112 C356.424,580.112 359.712,581.408 362.88,584 L362.88,584 L365.112,578.816 C363.672,577.424 361.812,576.32 359.532,575.504 C357.252,574.688 354.888,574.28 352.44,574.28 C348.888,574.28 345.78,575.048 343.116,576.584 C340.452,578.12 338.388,580.28 336.924,583.064 C335.46,585.848 334.728,589.064 334.728,592.712 C334.728,596.36 335.436,599.54 336.852,602.252 C338.268,604.964 340.284,607.064 342.9,608.552 C345.516,610.04 348.6,610.784 352.152,610.784 Z M386.784,610.784 C390.24,610.784 393.276,610.04 395.892,608.552 C398.508,607.064 400.524,604.94 401.94,602.18 C403.356,599.42 404.064,596.216 404.064,592.568 C404.064,588.872 403.356,585.644 401.94,582.884 C400.524,580.124 398.508,578 395.892,576.512 C393.276,575.024 390.24,574.28 386.784,574.28 C383.328,574.28 380.292,575.024 377.676,576.512 C375.06,578 373.044,580.124 371.628,582.884 C370.212,585.644 369.504,588.872 369.504,592.568 C369.504,596.216 370.212,599.42 371.628,602.18 C373.044,604.94 375.06,607.064 377.676,608.552 C380.292,610.04 383.328,610.784 386.784,610.784 Z M386.784,605.024 C383.568,605.024 381.108,603.968 379.404,601.856 C377.7,599.744 376.848,596.648 376.848,592.568 C376.848,588.536 377.712,585.452 379.44,583.316 C381.168,581.18 383.616,580.112 386.784,580.112 C389.952,580.112 392.4,581.18 394.128,583.316 C395.856,585.452 396.72,588.536 396.72,592.568 C396.72,596.648 395.868,599.744 394.164,601.856 C392.46,603.968 390,605.024 386.784,605.024 Z" id="MiBanco" fill="#FFFFFF" fill-rule="nonzero"></path>
    </g>
</svg>